<?xml version="1.0" standalone="no"?>
<!DOCTYPE svg PUBLIC "-//W3C//DTD SVG 20010904//EN"
 "http://www.w3.org/TR/2001/REC-SVG-20010904/DTD/svg10.dtd">
<svg version="1.0" xmlns="http://www.w3.org/2000/svg"
 width="501.000000pt" height="488.000000pt" viewBox="0 0 501.000000 488.000000"
 preserveAspectRatio="xMidYMid meet">

<g transform="translate(0.000000,488.000000) scale(0.100000,-0.100000)"
fill="#000000" stroke="none">
<path d="M544 4771 c-94 -23 -197 -102 -251 -192 -69 -116 -66 -26 -64 -1534
1 -866 6 -1376 12 -1404 26 -115 125 -238 236 -293 52 -25 82 -33 161 -39 151
-12 3685 -11 3761 1 153 25 284 143 332 300 19 64 19 96 17 1455 l-3 1390 -38
77 c-47 96 -119 170 -207 212 l-65 31 -1930 2 c-1062 0 -1944 -2 -1961 -6z
m3764 -339 c-3 -9 -28 -33 -553 -527 -176 -165 -433 -408 -573 -540 -139 -132
-294 -278 -345 -324 -51 -46 -147 -138 -215 -204 l-122 -121 -33 31 c-17 16
-133 124 -257 238 -602 559 -1522 1429 -1528 1446 -2 5 672 9 1813 9 999 0
1815 -4 1813 -8z m-3498 -614 c91 -85 274 -256 406 -379 133 -123 358 -334
501 -469 463 -438 644 -605 685 -629 52 -32 127 -33 185 -3 24 12 118 96 210
185 93 90 231 222 307 293 77 71 221 206 320 299 100 94 271 254 381 355 110
101 277 257 370 345 94 88 180 168 192 179 l22 18 0 -1111 -1 -1111 -38 30
c-21 17 -71 61 -112 98 -40 38 -140 128 -223 202 -156 139 -384 347 -588 535
-176 162 -173 160 -200 141 -12 -8 -69 -60 -127 -115 l-105 -100 55 -56 c30
-31 114 -109 185 -173 320 -287 378 -341 629 -580 l128 -123 -1496 3 c-823 2
-1496 4 -1496 4 0 4 171 165 280 264 161 146 658 610 688 642 l22 24 -126 112
c-70 62 -129 112 -133 112 -7 0 -94 -77 -377 -335 -120 -110 -280 -254 -354
-320 -74 -66 -193 -175 -266 -242 -72 -68 -134 -123 -138 -123 -3 0 -6 503 -6
1117 l0 1117 28 -25 c15 -14 101 -95 192 -181z"/>
<path d="M2430 4056 c-275 -49 -463 -327 -410 -606 50 -266 324 -401 538 -266
43 27 44 27 64 9 15 -13 36 -18 82 -17 113 1 225 81 308 221 38 65 36 78 -14
98 -35 14 -43 14 -49 2 -5 -7 -28 -41 -52 -74 -46 -61 -108 -103 -155 -103
-22 0 -22 0 7 58 28 56 93 230 146 389 25 77 26 83 10 113 -41 80 -160 159
-270 179 -72 13 -120 13 -205 -3z m247 -161 c55 -25 61 -36 42 -79 -11 -24
-12 -24 -48 -8 -20 8 -65 16 -101 16 -117 1 -211 -71 -260 -201 -27 -73 -36
-165 -20 -222 23 -88 111 -140 209 -126 37 5 44 4 34 -6 -18 -18 -126 -24
-178 -9 -164 46 -229 263 -135 455 87 179 287 258 457 180z m-33 -224 c16 -17
15 -24 -15 -117 -26 -81 -38 -106 -71 -136 -21 -21 -47 -38 -58 -38 -67 0 -45
199 30 280 33 36 87 41 114 11z"/>
</g>
</svg>
