<?xml version="1.0" standalone="no"?>
<!DOCTYPE svg PUBLIC "-//W3C//DTD SVG 20010904//EN"
 "http://www.w3.org/TR/2001/REC-SVG-20010904/DTD/svg10.dtd">
<svg version="1.0" xmlns="http://www.w3.org/2000/svg"
 width="596.000000pt" height="596.000000pt" viewBox="0 0 596.000000 596.000000"
 preserveAspectRatio="xMidYMid meet">

<g transform="translate(0.000000,596.000000) scale(0.100000,-0.100000)"
fill="#000000" stroke="none">
<path d="M1575 5453 c-216 -20 -468 -110 -640 -226 -82 -56 -216 -186 -287
-280 -108 -141 -188 -305 -231 -474 l-22 -88 0 -1455 0 -1455 23 -85 c96 -347
328 -651 614 -805 l83 -45 -465 0 c-444 0 -466 -1 -497 -20 -53 -32 -57 -104
-7 -137 33 -21 325 -23 1539 -6 1101 16 1965 16 2715 2 316 -6 745 -12 952
-13 l377 -1 23 22 c32 32 30 86 -5 121 l-27 27 -465 3 -465 3 66 34 c143 75
288 200 392 340 59 79 169 295 202 397 50 157 50 144 50 1624 0 1529 3 1457
-66 1655 -153 443 -506 752 -964 845 -78 16 -201 18 -1470 19 -762 1 -1403 0
-1425 -2z m2753 -383 c301 -34 583 -235 707 -502 68 -148 77 -204 82 -495 l5
-263 -464 0 -465 0 -64 67 c-260 273 -497 415 -814 489 -111 26 -136 28 -330
29 -236 0 -313 -11 -490 -72 -257 -89 -511 -263 -665 -457 l-45 -56 -56 0 -56
0 -6 627 c-3 345 -3 631 -1 635 7 12 2561 10 2662 -2z m-2868 -650 l0 -610
-100 0 -100 0 0 579 0 579 73 31 c39 17 84 31 100 31 l27 0 0 -610z m-410
-105 l0 -505 -141 0 -141 0 5 253 c7 330 28 423 135 592 36 57 127 165 139
165 2 0 3 -227 3 -505z m1936 -290 c11 -7 27 -27 34 -44 14 -35 42 -45 153
-55 273 -26 565 -225 712 -486 115 -203 156 -396 136 -631 -16 -192 -57 -326
-146 -479 -100 -171 -221 -282 -410 -375 -246 -123 -533 -149 -763 -71 -274
93 -467 263 -586 517 -66 140 -87 229 -93 394 -11 309 74 532 294 767 45 48
53 62 53 95 0 51 -15 70 -70 86 -37 11 -46 17 -48 39 -3 22 5 33 40 58 192
141 597 249 694 185z m-1406 -589 c0 -2 -13 -44 -29 -93 -51 -158 -66 -266
-65 -483 0 -163 4 -212 23 -300 40 -188 118 -369 232 -541 76 -114 289 -331
400 -407 273 -185 622 -277 956 -252 394 30 713 177 974 448 215 222 346 471
406 769 22 110 25 440 5 548 -11 55 -64 235 -89 303 -4 9 72 12 361 12 l367 0
-3 -947 -3 -948 -28 -90 c-53 -169 -103 -258 -213 -375 -115 -121 -268 -213
-433 -259 l-96 -26 -1400 0 c-1562 0 -1434 -6 -1608 70 -223 96 -385 247 -481
448 -86 179 -80 101 -84 1175 l-3 952 406 0 c223 0 405 -2 405 -4z"/>
<path d="M4323 4729 c-18 -5 -48 -25 -67 -45 -61 -63 -66 -83 -66 -271 0 -192
10 -227 75 -280 55 -46 105 -56 257 -51 119 3 138 6 178 28 24 14 58 45 75 68
l30 44 0 187 0 187 -28 42 c-15 23 -46 54 -69 69 -40 27 -46 28 -197 30 -86 1
-171 -2 -188 -8z"/>
<path d="M2897 3715 c-94 -18 -230 -73 -306 -123 -76 -51 -201 -176 -249 -250
-163 -252 -185 -587 -56 -845 120 -238 309 -392 551 -448 122 -28 300 -23 408
11 150 48 263 116 372 226 117 118 194 272 224 448 15 90 6 321 -16 401 -75
271 -291 488 -565 565 -99 28 -259 35 -363 15z m327 -186 c67 -18 97 -38 112
-75 14 -32 13 -39 -3 -72 -26 -54 -57 -61 -145 -33 -154 50 -327 6 -460 -118
-93 -85 -142 -189 -155 -324 -8 -85 -36 -127 -87 -127 -71 0 -111 63 -97 151
31 189 85 305 190 410 184 183 413 250 645 188z"/>
</g>
</svg>
