<?xml version="1.0" standalone="no"?>
<!DOCTYPE svg PUBLIC "-//W3C//DTD SVG 20010904//EN"
 "http://www.w3.org/TR/2001/REC-SVG-20010904/DTD/svg10.dtd">
<svg version="1.0" xmlns="http://www.w3.org/2000/svg"
 width="400.000000pt" height="678.000000pt" viewBox="0 0 400.000000 678.000000"
 preserveAspectRatio="xMidYMid meet">

<g transform="translate(0.000000,678.000000) scale(0.100000,-0.100000)"
fill="#000000" stroke="none">
<path d="M829 6536 c-114 -32 -255 -145 -311 -252 -62 -115 -58 49 -58 -2454
0 -1540 4 -2300 11 -2330 19 -84 71 -172 144 -246 118 -119 -15 -109 1375
-109 l1195 0 67 33 c126 62 232 203 258 341 14 78 14 4547 -1 4627 -31 170
-176 334 -340 385 -58 18 -108 19 -1177 18 -870 -1 -1127 -4 -1163 -13z m481
-268 c1 -154 101 -307 233 -356 55 -21 73 -22 442 -22 422 0 435 2 523 62 88
61 152 187 152 300 l0 58 203 0 c198 0 204 -1 255 -26 58 -29 96 -69 126 -134
21 -44 21 -56 24 -955 2 -500 0 -1429 -3 -2062 l-7 -1153 -1274 0 -1274 0 0
2063 0 2062 24 50 c13 28 41 67 62 87 66 63 85 67 312 68 l202 0 0 -42z m1110
0 c0 -58 -27 -109 -70 -130 -31 -16 -71 -18 -370 -18 -318 0 -337 1 -368 20
-39 24 -62 73 -62 130 l0 40 435 0 435 0 0 -42z m-348 -4554 c73 -37 106 -139
69 -211 -54 -107 -176 -133 -261 -57 -148 134 13 359 192 268z m-811 -104 c24
-13 26 -65 3 -74 -31 -12 -319 -7 -332 6 -18 18 -15 55 6 67 23 14 298 14 323
1z m1764 -2 c27 -12 34 -45 13 -66 -8 -8 -60 -12 -170 -12 -149 0 -158 1 -168
21 -9 16 -8 26 5 45 15 24 18 24 155 24 84 0 149 -5 165 -12z"/>
<path d="M175 988 c-52 -28 -62 -97 -21 -145 l24 -28 1805 -3 1804 -2 26 24
c33 31 43 68 27 107 -27 63 104 59 -1857 59 -1275 -1 -1794 -4 -1808 -12z"/>
</g>
</svg>
